# xmcd
#
# Track frame offsets:
# 182
# 22480
# 46225
# 72832
# 90452
# 112522
# 130960
# 149285
# 169255
# 185410
# 203400
# 224027
#
# Disc length: 3352 seconds
#
#
# Revision: 0
# Processed by: cddbd v1.5.1PL0 Copyright (c) Steve Scherf et al.
# Submitted via: FreeRIP 2.931 
#
DISCID=ac0d160c
DTITLE=Gene Clark - Aircrafts and More
DYEAR=1900
DGENRE=
TTITLE0=Nobody Knows But Me
TTITLE1=Kansas City Southern
TTITLE2=Spanish Guitar
TTITLE3=Home Run King
TTITLE4=Here Without You
TTITLE5=No Other
TTITLE6=I Can't Live Without You
TTITLE7=Set You Free This Time
TTITLE8=She Darked The Sun
TTITLE9=In The Pines
TTITLE10=Train Leaves Here This Morning
TTITLE11=Silver Raven
EXTD=Live at Ebbet's Field, Denver, CO - 19 February 1975
EXTT0=
EXTT1=
EXTT2=
EXTT3=
EXTT4=
EXTT5=
EXTT6=
EXTT7=
EXTT8=
EXTT9=
EXTT10=
EXTT11=
PLAYORDER=
